<?xml version="1.0" encoding="utf-8"?>
<!-- Generator: Adobe Illustrator 26.0.3, SVG Export Plug-In . SVG Version: 6.00 Build 0)  -->
<svg version="1.1" id="Capa_1" xmlns="http://www.w3.org/2000/svg" xmlns:xlink="http://www.w3.org/1999/xlink" x="0px" y="0px"
	 width="800px" height="800px" viewBox="0 0 800 800" style="enable-background:new 0 0 800 800;" xml:space="preserve">
<style type="text/css">
	.st0{fill:#FFFFFF;}
</style>
<g>
	<g>
		<path class="st0" d="M271.2,309.3c0,1.5,0,2.9,0,4.4c-2.3,39.2-35.1,70.5-74.9,70.5H157v40.4h-46.5V234.4c0,0,70,0,92.5,0
			c39.2,0,66.2,33.4,68.2,70.5C271.2,306.4,271.2,307.9,271.2,309.3z M224.1,309.3c0-15.5-12.3-28.1-27.8-28.4H157v56.8h38.6
			C211.5,337.7,224.1,325.1,224.1,309.3z"/>
		<path class="st0" d="M417,424.7l-31.3-47.4h-33.4v47.4h-46.5V234.4c0,0,70,0,92.5,0c38.9,0,68.2,33.4,68.2,74.9
			c0,27.5-13.8,47.1-34,58l41.9,57.4H417z M352.3,335.4h38.6c15.5,0,28.4-10.2,28.4-26.1c0-15.5-12.6-28.1-28.1-28.1h-38.9V335.4z"
			/>
		<path class="st0" d="M689.5,329.8c0,55.3-44.8,100.1-100.1,100.1c-55.6,0-100.4-44.8-100.4-100.1c0-55.3,44.8-100.4,100.4-100.4
			C644.7,229.4,689.5,274.5,689.5,329.8z M645.6,329.8c0-31-25.2-56.5-56.2-56.5c-31.3,0-56.5,25.5-56.5,56.5
			c0,31,25.2,56.2,56.5,56.2C620.4,386,645.6,360.8,645.6,329.8z"/>
		<path class="st0" d="M239.3,451.4v122.3H210v-62.5l-28.8,62.5h-12.8l-28.2-61.9v61.9h-29.5V451.4h29.5v0.6l34.6,68.7l35.2-69.2
			v0.2v-0.2H239.3z"/>
		<path class="st0" d="M292.6,477.7v21.8H342v26.2h-49.5v21.8h62.7v26.2h-92V451.4h92v26.3H292.6z"/>
		<path class="st0" d="M493.3,511.9c0,33.9-27.3,61.3-61.1,61.3h-57.9V451h57.9C469.6,451,493.3,478.3,493.3,511.9z M464,511.9
			c0-18.2-13.5-31.6-29-31.6c-7.9,0-31.4,0-31.4,0v63.6H435C450.2,543.4,464,530.2,464,511.9z"/>
		<path class="st0" d="M538.1,451.4v122.3h-29.3V451.4H538.1z"/>
		<path class="st0" d="M648.7,556.9h-59.3l-8.3,16.7H548l60.8-122.3H631l58.5,122.3H657L648.7,556.9z M637.2,533L619,493.7
			L601.7,533H637.2z"/>
	</g>
</g>
</svg>
