<?xml version="1.0" encoding="UTF-8"?>
<!DOCTYPE svg  PUBLIC '-//W3C//DTD SVG 1.1//EN'  'http://www.w3.org/Graphics/SVG/1.1/DTD/svg11.dtd'>
<svg width="797pt" height="279pt" version="1.1" viewBox="0 0 797 279" xmlns="http://www.w3.org/2000/svg">
<g fill="#fff">
<path d="m336.32 128.35c9.65-15.45 26.15-26.33 44.12-29.21 1.45 10.27 4.25 20.34 5.09 30.68-10.1 1.73-19.18 8.15-24 17.22-9.15-4.51-17.49-10.5-26.64-14.99 0.39-1.26 0.75-2.55 1.43-3.7z"/>
<path d="m387.23 107.12c18.34-2.3 38.01 2.15 51.94 14.69 0.32 0.81 0.56 1.65 0.73 2.52-6.66 7.27-12.8 15.01-19.65 22.12-7.77-6.74-18.34-10.38-28.6-8.46-1.33-5.62-1.75-11.39-2.77-17.06-0.81-4.57-1.56-9.16-1.65-13.81z"/>
<path d="m641.18 126.21c6.67-1.7 13.22 5.25 11.03 11.81-1.25 7.84-13.22 9.47-17.19 2.99-3.54-5.34-0.39-13.82 6.16-14.8z"/>
<path d="m320.79 187.59c-7.87-17.69-6.12-39.09 3.11-55.95 9.22 4.56 18.12 9.73 27.32 14.33-1.74 4.57-3.85 9.09-4.23 14.03-0.99 5.68 1.13 11.17 1.86 16.74-9.34 3.66-18.82 6.96-28.06 10.85z"/>
<path d="m421.3 151.22c5.98-5.91 11.48-12.29 17.5-18.15 10.09 9.5 17.2 22.14 19.8 35.78 0.97 5.37 0.92 10.85 0.88 16.3-3.82-0.17-7.64-0.28-11.46-0.37-6.35-0.18-12.81-1.59-19.09 0.03-0.26-6.66-1.02-13.51-4.25-19.48-1.66-3.56-4.63-6.21-6.93-9.33 0.45-2.04 2.18-3.35 3.55-4.78z"/>
<path d="m484.3 136.04c5.46-0.09 10.92-0.04 16.38 0.08 0.02 15.29 0.19 30.59 0.02 45.89 0.1 1.51-0.21 3.17 0.51 4.59 6.71 0.53 13.46 0.16 20.19 0.25 0.29 4.95 0.26 9.91 0.25 14.86-12.45 0.12-24.9 0.09-37.34 0.07-0.07-21.91-0.05-43.83-0.01-65.74z"/>
<path d="m590.22 136.1c5.66-0.04 11.31-0.06 16.97 0.03 0.2 16.81-0.17 33.64 0.24 50.44 6.84 0.7 13.77 0.09 20.65 0.3-0.06 4.83-0.05 9.67 0.05 14.51-12.57 0.88-25.22 0.08-37.81 0.35-0.14-21.88-0.13-43.76-0.1-65.63z"/>
<path d="m530.66 157.64c5.55-7.39 15.53-11.16 24.56-8.95 3.61 0.93 6.69 3.11 9.7 5.23 0.1-1.49 0.2-2.97 0.32-4.46 5.09 0.16 10.2-0.54 15.27 0 0.44 13.49-0.03 27.01 0.16 40.52 0.03 3.94 0.1 7.9-0.41 11.82-5.03 0-10.07-0.02-15.09 0-0.05-1.62-0.09-3.24-0.12-4.85-4.18 2.93-8.77 5.69-14.01 5.97-8.82 0.74-18.38-3.2-22.69-11.22-5.64-10.53-5.12-24.5 2.31-34.06m17.7 5.95c-7.35 2.76-10.03 12.53-5.99 19.05 3.72 7.78 15.54 7.98 20.47 1.34 2.88-3.85 3.74-9.19 1.71-13.62-2.2-6.28-10.19-9.27-16.19-6.77z"/>
<path d="m662.85 157.94c4.11-7.34 13.12-11.08 21.29-9.63 4.57 0.47 8.37 3.21 11.95 5.86 0.05-1.54 0.11-3.09 0.18-4.63 4.91-0.08 9.84-0.06 14.76-0.1 0.96 10.85-0.25 21.75 0.41 32.61-0.61 9.33 1.88 20-4.19 28.04-5.38 7.64-15.22 10.49-24.17 10.12-7.71-0.43-15.95-3.1-20.76-9.49-2.09-2.51-2.72-5.78-3.22-8.91 4.95 0.11 9.91-0.03 14.87 0.07 3.34-0.42 4.73 3.65 7.88 3.93 4.31 0.65 9.7 0.34 12.53-3.49 1.82-2.14 1.06-5.22 1.44-7.79-4.39 2.24-8.67 5.26-13.79 5.4-9.14 0.89-18.06-4.91-21.68-13.21-3.88-9.19-3.37-20.52 2.5-28.78m11.43 10.12c-1.72 5.25-1.7 12 2.87 15.84 2 2.3 5.1 2.89 8 2.27 4.38 0.8 7.84-2.6 10.01-5.97 3.75-6.75 0.09-17.32-8.15-18.25-5.06-1.4-10.51 1.52-12.73 6.11z"/>
<path d="m720.14 165.88c3.42-10.79 14.5-18.94 25.98-17.7 4.85 0.18 8.71 3.36 12.95 5.3 0.03-1.38 0.07-2.76 0.13-4.13 5.16-0.03 10.34-0.14 15.51 0.16 0.04 17.42-0.03 34.85 0.01 52.27-5.19 0.02-10.37-0.02-15.56 0.09-0.09-1.62-0.17-3.23-0.24-4.84-4.22 2.78-8.7 5.75-13.92 5.97-8.52 0.58-18.13-2.91-22.28-10.82-4.79-7.79-5.33-17.71-2.58-26.3m22.24-2.29c-2.49 0.91-4.53 2.79-5.94 5-4.95 7.02-0.45 18.99 8.38 20.01 3.35 0.87 6.73-0.44 9.47-2.32 4.47-2.64 5.7-8.54 4.86-13.33-0.9-7.49-9.91-12.53-16.77-9.36z"/>
<path d="m381.27 149.34c8.16-1.43 17.07 1.51 22.64 7.7 9.01 9.77 7.95 27.07-2.74 35.21-10.15 8.65-27.3 6.67-34.96-4.36-7.83-10-5.65-25.79 4.26-33.58 3.16-2.43 6.91-4.1 10.8-4.97m-12.08 8.56c-0.3 3.34-0.74 6.68-0.36 10.04-2.28 2.24-3.62 5.19-5.72 7.58 0.68 3.08 1.22 6.45 3.28 8.94 2.85 1.48 5.7 3.26 9.03 3.28 0.75 3.41 4.65 4.67 5.54 7.99 3.48 0.11 6.97 0.07 10.45-0.15 0.02-0.56 0.06-1.69 0.08-2.25 1.41-1.18 2.81-2.39 4.2-3.61-0.09-0.66-0.26-1.99-0.35-2.65 3.68 1.04 6.9-1.25 10.05-2.77 1.66-2.79 2.2-6.05 2.97-9.16-2.57-1.27-3.08-4.3-4.33-6.6-2.1 0.22-4.19 0.46-6.28 0.76 1.66-0.76 3.41-1.44 4.81-2.65 0.45-2.76 0.15-5.57 0.19-8.35-2.41-2.02-4.95-3.88-7.66-5.46-2.82 0.79-5.7 1.37-8.5 2.22-0.31 1.75-0.61 3.5-0.91 5.26-0.32-1.72-0.57-3.46-1.04-5.14-2.4-1.42-5.41-1.22-7.9-2.5-2.75 1.39-5.21 3.23-7.55 5.22z"/>
<path d="m635.1 149.42c5.2-0.09 10.4-0.1 15.6 0.04 0.05 17.42-0.02 34.84-0.08 52.25-5.16 0.02-10.33 0.03-15.49-0.02-0.08-17.42-0.3-34.84-0.03-52.27z"/>
<path d="m375.86 170.15c3.3-2.26 6.25-5.27 10.09-6.61 3.64 1.71 6.6 4.53 9.74 6.99-1.44 3.59-2.69 7.25-3.87 10.93-4.07 0.1-8.13 0.05-12.19 0.05-1.26-3.79-2.49-7.59-3.77-11.36z"/>
<path d="m314.11 196.03c9.13-4.74 18.74-8.51 28.15-12.63 2 2.27 3.07 5.15 4.85 7.58 4.39 6.04 10.97 10.13 17.96 12.5-2.74 9.81-6.06 19.44-8.95 29.2-9.13-1.44-17.26-6.67-24.24-12.5-7.62-6.61-13.69-14.93-17.77-24.15z"/>
<path d="m419.41 187.47c10.17 0.5 20.3 1.48 30.45 2.17 0.29 5.88-0.93 11.7-2.98 17.19-3.81 11.56-11.1 21.91-20.45 29.65-1.3 1.45-3.84 2.04-4.96 0.08-5.03-6.66-9.95-13.41-14.89-20.14-1.26-1.32-1.52-3.66 0.32-4.6 7.48-5.82 11.64-15.04 12.51-24.35z"/>
<path d="m381.93 213.98c5.16-0.9 9.76-3.5 14.67-5.17 5.37 8.5 11.26 16.65 16.73 25.09-15.68 11.49-36.6 14.15-55.15 9.12 2.46-10.01 5.24-19.93 8.03-29.85 5.16 0.99 10.5 2.1 15.72 0.81z"/>
</g>
<path d="m152.9 22.98c5.32-10.27 14.79-18.54 25.99-21.71 4.97-0.48 10.02-0.31 15.01-0.12 9.36 2.32 16.43 9.93 20.71 18.26 6.85 13.71 10.37 28.85 12.2 44 1.94 19.14 1.61 38.62-2.27 57.51-1.18 4.95-3.56 9.96-7.91 12.86-4.11 2.83-10.16 2.91-14.05-0.36-3.11-2.86-4.57-7.2-4.49-11.36-0.15-11.07 2.37-21.98 2.27-33.04-0.05-7.06 0.78-14.83-3.26-21.06-3.04-4.96-10.27-6-14.99-2.92-6.47 4.29-10.79 11.04-14.15 17.89-7.16 15.08-11.74 31.19-16.79 47.05-3 9.56-8.18 18.95-16.62 24.71-8.9 6.07-20.04 7.77-30.6 7.16-9.66-0.49-18.89-5.1-25.46-12.13-0.22 0.26-0.64 0.8-0.86 1.06-1.07-3.94-4.42-6.61-6.34-10.1-7.38-12.36-14.46-24.9-21.64-37.38-2.42-4.05-4.91-8.28-8.76-11.14-3.71-2.88-9.78-1.12-11.63 3.12-2.39 5.42-1.55 11.54-0.59 17.2 2.46 13.28 7.84 25.81 10.68 39.01 0.89 4.49 0.72 9.71-2.39 13.37-3.2 3.63-8.77 4.38-13.07 2.39-5.56-2.16-7.92-8.15-10.34-13.12-6.07-15.46-10.57-31.63-12.44-48.15-0.23-8.98-0.05-17.97-0.14-26.94 2.1-16.34 5.83-33.42 16.38-46.55 7-8.76 18.37-14.04 29.62-12.64 7.91 0.54 14.98 4.98 20.28 10.66 0.69-0.09 2.08-0.27 2.77-0.36-0.44 0.33-1.32 0.98-1.76 1.31 8.93 10.15 15.99 21.75 23.23 33.12 3.95 6.47 9.14 12.72 16.36 15.61 6.32 2.64 14.11 1.45 19.19-3.2 3.75-3.05 5.92-7.47 7.82-11.81 5.99-14.07 11.11-28.54 18.04-42.2z" fill="#035786"/>
<g fill="#00dc94">
<path d="m291.6 62.69c2.42-0.54 4.92-0.51 7.39-0.53 15.01 0.09 30.03 0.06 45.05 0.31 13.01 0.56 26.02-0.75 39.04-0.11 12.31-0.42 24.6 0.87 36.91 0 17.99-0.21 36-0.08 54-0.07 19.69 0.99 39.38-0.38 59.08-0.03 15.65-0.34 31.3 0.97 46.94 0.05 14-0.53 28 0.86 41.99 0.02 13-0.19 26.02-0.19 39.02 0.02 11.67 0.44 23.35 0.46 35.01-0.06 12.01-0.48 24.01 0.7 36.02 0.23 7.24-0.24 14.5-0.44 21.74 0 7.4 0.43 14.84-0.25 22.23 0.42 9.94 0.91 18.7 8.85 20.98 18.49v179.18c-2.52 7.99-8.95 14.72-17.09 16.96-6.2 1.33-12.58 0.6-18.86 0.76-37.35 0.16-74.69-0.28-112.03 0-15.01 0.2-30.03-0.65-45.04-0.02-87.65-0.18-175.3 0.11-262.95-0.13-8.35-0.32-16.72-0.25-25.07 0.15-13.98 0.89-25.82-12.66-24.74-26.29 0.15-62.03 0.05-124.06-0.07-186.1-0.04-1.11 0.11-2.2 0.45-3.25m44.72 65.66c-0.68 1.15-1.04 2.44-1.43 3.7 9.15 4.49 17.49 10.48 26.64 14.99 4.82-9.07 13.9-15.49 24-17.22-0.84-10.34-3.64-20.41-5.09-30.68-17.97 2.88-34.47 13.76-44.12 29.21m50.91-21.23c0.09 4.65 0.84 9.24 1.65 13.81 1.02 5.67 1.44 11.44 2.77 17.06 10.26-1.92 20.83 1.72 28.6 8.46 6.85-7.11 12.99-14.85 19.65-22.12-0.17-0.87-0.41-1.71-0.73-2.52-13.93-12.54-33.6-16.99-51.94-14.69m253.95 19.09c-6.55 0.98-9.7 9.46-6.16 14.8 3.97 6.48 15.94 4.85 17.19-2.99 2.19-6.56-4.36-13.51-11.03-11.81m-320.39 61.38c9.24-3.89 18.72-7.19 28.06-10.85-0.73-5.57-2.85-11.06-1.86-16.74 0.38-4.94 2.49-9.46 4.23-14.03-9.2-4.6-18.1-9.77-27.32-14.33-9.23 16.86-10.98 38.26-3.11 55.95m100.51-36.37c-1.37 1.43-3.1 2.74-3.55 4.78 2.3 3.12 5.27 5.77 6.93 9.33 3.23 5.97 3.99 12.82 4.25 19.48 6.28-1.62 12.74-0.21 19.09-0.03 3.82 0.09 7.64 0.2 11.46 0.37 0.04-5.45 0.09-10.93-0.88-16.3-2.6-13.64-9.71-26.28-19.8-35.78-6.02 5.86-11.52 12.24-17.5 18.15m63-15.18c-0.04 21.91-0.06 43.83 0.01 65.74 12.44 0.02 24.89 0.05 37.34-0.07 0.01-4.95 0.04-9.91-0.25-14.86-6.73-0.09-13.48 0.28-20.19-0.25-0.72-1.42-0.41-3.08-0.51-4.59 0.17-15.3 0-30.6-0.02-45.89-5.46-0.12-10.92-0.17-16.38-0.08m105.92 0.06c-0.03 21.87-0.04 43.75 0.1 65.63 12.59-0.27 25.24 0.53 37.81-0.35-0.1-4.84-0.11-9.68-0.05-14.51-6.88-0.21-13.81 0.4-20.65-0.3-0.41-16.8-0.04-33.63-0.24-50.44-5.66-0.09-11.31-0.07-16.97-0.03m-59.56 21.54c-7.43 9.56-7.95 23.53-2.31 34.06 4.31 8.02 13.87 11.96 22.69 11.22 5.24-0.28 9.83-3.04 14.01-5.97 0.03 1.61 0.07 3.23 0.12 4.85 5.02-0.02 10.06 0 15.09 0 0.51-3.92 0.44-7.88 0.41-11.82-0.19-13.51 0.28-27.03-0.16-40.52-5.07-0.54-10.18 0.16-15.27 0-0.12 1.49-0.22 2.97-0.32 4.46-3.01-2.12-6.09-4.3-9.7-5.23-9.03-2.21-19.01 1.56-24.56 8.95m132.19 0.3c-5.87 8.26-6.38 19.59-2.5 28.78 3.62 8.3 12.54 14.1 21.68 13.21 5.12-0.14 9.4-3.16 13.79-5.4-0.38 2.57 0.38 5.65-1.44 7.79-2.83 3.83-8.22 4.14-12.53 3.49-3.15-0.28-4.54-4.35-7.88-3.93-4.96-0.1-9.92 0.04-14.87-0.07 0.5 3.13 1.13 6.4 3.22 8.91 4.81 6.39 13.05 9.06 20.76 9.49 8.95 0.37 18.79-2.48 24.17-10.12 6.07-8.04 3.58-18.71 4.19-28.04-0.66-10.86 0.55-21.76-0.41-32.61-4.92 0.04-9.85 0.02-14.76 0.1-0.07 1.54-0.13 3.09-0.18 4.63-3.58-2.65-7.38-5.39-11.95-5.86-8.17-1.45-17.18 2.29-21.29 9.63m57.29 7.94c-2.75 8.59-2.21 18.51 2.58 26.3 4.15 7.91 13.76 11.4 22.28 10.82 5.22-0.22 9.7-3.19 13.92-5.97 0.07 1.61 0.15 3.22 0.24 4.84 5.19-0.11 10.37-0.07 15.56-0.09-0.04-17.42 0.03-34.85-0.01-52.27-5.17-0.3-10.35-0.19-15.51-0.16-0.06 1.37-0.1 2.75-0.13 4.13-4.24-1.94-8.1-5.12-12.95-5.3-11.48-1.24-22.56 6.91-25.98 17.7m-338.87-16.54c-3.89 0.87-7.64 2.54-10.8 4.97-9.91 7.79-12.09 23.58-4.26 33.58 7.66 11.03 24.81 13.01 34.96 4.36 10.69-8.14 11.75-25.44 2.74-35.21-5.57-6.19-14.48-9.13-22.64-7.7m253.83 0.08c-0.27 17.43-0.05 34.85 0.03 52.27 5.16 0.05 10.33 0.04 15.49 0.02 0.06-17.41 0.13-34.83 0.08-52.25-5.2-0.14-10.4-0.13-15.6-0.04m-320.99 46.61c4.08 9.22 10.15 17.54 17.77 24.15 6.98 5.83 15.11 11.06 24.24 12.5 2.89-9.76 6.21-19.39 8.95-29.2-6.99-2.37-13.57-6.46-17.96-12.5-1.78-2.43-2.85-5.31-4.85-7.58-9.41 4.12-19.02 7.89-28.15 12.63m105.3-8.56c-0.87 9.31-5.03 18.53-12.51 24.35-1.84 0.94-1.58 3.28-0.32 4.6 4.94 6.73 9.86 13.48 14.89 20.14 1.12 1.96 3.66 1.37 4.96-0.08 9.35-7.74 16.64-18.09 20.45-29.65 2.05-5.49 3.27-11.31 2.98-17.19-10.15-0.69-20.28-1.67-30.45-2.17m-37.48 26.51c-5.22 1.29-10.56 0.18-15.72-0.81-2.79 9.92-5.57 19.84-8.03 29.85 18.55 5.03 39.47 2.37 55.15-9.12-5.47-8.44-11.36-16.59-16.73-25.09-4.91 1.67-9.51 4.27-14.67 5.17z"/>
<path d="m369.19 157.9c2.34-1.99 4.8-3.83 7.55-5.22 2.49 1.28 5.5 1.08 7.9 2.5 0.47 1.68 0.72 3.42 1.04 5.14 0.3-1.76 0.6-3.51 0.91-5.26 2.8-0.85 5.68-1.43 8.5-2.22 2.71 1.58 5.25 3.44 7.66 5.46-0.04 2.78 0.26 5.59-0.19 8.35-1.4 1.21-3.15 1.89-4.81 2.65 2.09-0.3 4.18-0.54 6.28-0.76 1.25 2.3 1.76 5.33 4.33 6.6-0.77 3.11-1.31 6.37-2.97 9.16-3.15 1.52-6.37 3.81-10.05 2.77 0.09 0.66 0.26 1.99 0.35 2.65-1.39 1.22-2.79 2.43-4.2 3.61-0.02 0.56-0.06 1.69-0.08 2.25-3.48 0.22-6.97 0.26-10.45 0.15-0.89-3.32-4.79-4.58-5.54-7.99-3.33-0.02-6.18-1.8-9.03-3.28-2.06-2.49-2.6-5.86-3.28-8.94 2.1-2.39 3.44-5.34 5.72-7.58-0.38-3.36 0.06-6.7 0.36-10.04m6.67 12.25c1.28 3.77 2.51 7.57 3.77 11.36 4.06 0 8.12 0.05 12.19-0.05 1.18-3.68 2.43-7.34 3.87-10.93-3.14-2.46-6.1-5.28-9.74-6.99-3.84 1.34-6.79 4.35-10.09 6.61z"/>
<path d="m674.28 168.06c2.22-4.59 7.67-7.51 12.73-6.11 8.24 0.93 11.9 11.5 8.15 18.25-2.17 3.37-5.63 6.77-10.01 5.97-2.9 0.62-6 0.03-8-2.27-4.57-3.84-4.59-10.59-2.87-15.84z"/>
<path d="m548.36 163.59c6-2.5 13.99 0.49 16.19 6.77 2.03 4.43 1.17 9.77-1.71 13.62-4.93 6.64-16.75 6.44-20.47-1.34-4.04-6.52-1.36-16.29 5.99-19.05z"/>
<path d="m742.38 163.59c6.86-3.17 15.87 1.87 16.77 9.36 0.84 4.79-0.39 10.69-4.86 13.33-2.74 1.88-6.12 3.19-9.47 2.32-8.83-1.02-13.33-12.99-8.38-20.01 1.41-2.21 3.45-4.09 5.94-5z"/>
</g>
</svg>
